<svg width="150" height="80" xmlns="http://www.w3.org/2000/svg">
 <g id="Layer_1">
  <title>Layer 1</title>
  <path id="svg_10" d="m316.00007,246.00004" opacity="NaN" stroke-width="3" stroke="#000" fill="#fff"/>
  <line stroke="#000" id="svg_40" y2="77.3125" x2="17.46875" y1="77.3125" x1="5" stroke-width="2" fill="none"/>
  <line stroke="#000" id="svg_41" y2="77.18116" x2="17.46875" y1="77.18116" x1="5" stroke-width="2" fill="none"/>
  <line stroke="#000" id="svg_42" y2="77.3125" x2="134.34617" y1="77.3125" x1="134.34617" stroke-width="2" fill="none"/>
  <line stroke="#000" id="svg_43" y2="77.3125" x2="147.50001" y1="77.3125" x1="134.34617" stroke-width="2" fill="none"/>
  <line stroke="#000" id="svg_44" y2="2.3125" x2="10.89183" y1="76.52441" x1="11.16587" stroke-width="2" fill="none"/>
  <line stroke="#000" id="svg_45" y2="2.3125" x2="140.78607" y1="76.52441" x1="141.06011" stroke-width="2" fill="none"/>
  <line stroke="#000" id="svg_46" y2="5.85891" x2="140.37501" y1="5.85891" x1="11.57692" stroke-width="2" fill="none"/>
  <g id="svg_53">
   <ellipse stroke="#000" ry="10" rx="9.51202" id="svg_31" cy="23.16397" cx="115.1202" stroke-width="2" fill="none"/>
   <line stroke="#000" id="svg_49" y2="12.51718" x2="115.15626" y1="5.07717" x1="115.01924" stroke-width="2" fill="none"/>
   <g id="svg_52">
    <line stroke="#000" id="svg_32" y2="53.12533" x2="115.10818" y1="33.8171" x1="115.2452" stroke-width="2" fill="none"/>
    <line stroke="#000" id="svg_33" y2="69.0185" x2="126.89184" y1="51.94319" x1="114.83415" stroke-width="2" fill="none"/>
    <line stroke="#000" id="svg_34" y2="68.49311" x2="104.96876" y1="52.59994" x1="114.97116" stroke-width="2" fill="none"/>
    <line stroke="#000" id="svg_35" y2="52.46859" x2="128.26203" y1="40.38452" x1="115.79328" stroke-width="2" fill="none"/>
    <line stroke="#000" id="svg_36" y2="51.1551" x2="102.91347" y1="39.33374" x1="115.9303" stroke-width="2" fill="none"/>
   </g>
  </g>
  <g id="svg_62">
   <ellipse stroke="#000" ry="10" rx="9.51202" id="svg_54" cy="23.16397" cx="77.3702" stroke-width="2" fill="none"/>
   <line stroke="#000" id="svg_55" y2="12.51718" x2="77.40625" y1="5.07717" x1="77.26923" stroke-width="2" fill="none"/>
   <g id="svg_61">
    <line stroke="#000" id="svg_56" y2="53.12533" x2="77.35818" y1="33.8171" x1="77.4952" stroke-width="2" fill="none"/>
    <line stroke="#000" id="svg_57" y2="69.0185" x2="89.14183" y1="51.94319" x1="77.08414" stroke-width="2" fill="none"/>
    <line stroke="#000" id="svg_58" y2="68.49311" x2="67.21875" y1="52.59994" x1="77.22116" stroke-width="2" fill="none"/>
    <line stroke="#000" id="svg_59" y2="52.46859" x2="90.51202" y1="40.38452" x1="78.04327" stroke-width="2" fill="none"/>
    <line stroke="#000" id="svg_60" y2="51.1551" x2="65.16346" y1="39.33374" x1="78.18029" stroke-width="2" fill="none"/>
   </g>
  </g>
  <g id="svg_71">
   <ellipse stroke="#000" ry="10" rx="9.51202" id="svg_63" cy="23.91397" cx="36.62019" stroke-width="2" fill="none"/>
   <line stroke="#000" id="svg_64" y2="13.26719" x2="36.65625" y1="5.82717" x1="36.51923" stroke-width="2" fill="none"/>
   <g id="svg_70">
    <line stroke="#000" id="svg_65" y2="53.87533" x2="36.60817" y1="34.5671" x1="36.74519" stroke-width="2" fill="none"/>
    <line stroke="#000" id="svg_66" y2="69.7685" x2="48.39182" y1="52.69319" x1="36.33413" stroke-width="2" fill="none"/>
    <line stroke="#000" id="svg_67" y2="69.24311" x2="26.46874" y1="53.34994" x1="36.47115" stroke-width="2" fill="none"/>
    <line stroke="#000" id="svg_68" y2="53.21859" x2="49.76202" y1="41.13453" x1="37.29326" stroke-width="2" fill="none"/>
    <line stroke="#000" id="svg_69" y2="51.9051" x2="24.41346" y1="40.08374" x1="37.43028" stroke-width="2" fill="none"/>
   </g>
  </g>
 </g>

</svg>